<?xml version="1.0" encoding="UTF-8" standalone="no"?>
<!DOCTYPE svg PUBLIC "-//W3C//DTD SVG 1.1//EN" "http://www.w3.org/Graphics/SVG/1.1/DTD/svg11.dtd">
<svg width="100%" height="100%" viewBox="0 0 353 353" version="1.1" xmlns="http://www.w3.org/2000/svg" xmlns:xlink="http://www.w3.org/1999/xlink" xml:space="preserve" xmlns:serif="http://www.serif.com/" style="fill-rule:evenodd;clip-rule:evenodd;stroke-linecap:round;stroke-linejoin:round;stroke-miterlimit:1.5;">
    <g transform="matrix(0.983537,0.180707,-0.180707,0.983537,34.8267,-28.9874)">
        <circle cx="176.504" cy="176.644" r="176.356"/>
    </g>
    <g id="Numbers">
        <g transform="matrix(1.90165,0,0,1.90165,-119.781,-1.9226)">
            <path d="M153.386,16.031L153.386,17.044L147.708,17.044C147.7,16.791 147.741,16.546 147.831,16.312C147.976,15.925 148.207,15.544 148.526,15.169C148.844,14.794 149.304,14.361 149.906,13.869C150.839,13.103 151.47,12.497 151.798,12.049C152.126,11.602 152.29,11.179 152.29,10.781C152.29,10.363 152.141,10.01 151.842,9.723C151.543,9.436 151.154,9.293 150.673,9.293C150.165,9.293 149.759,9.445 149.454,9.75C149.15,10.054 148.995,10.476 148.991,11.015L147.907,10.904C147.982,10.095 148.261,9.479 148.745,9.055C149.23,8.631 149.88,8.419 150.697,8.419C151.521,8.419 152.173,8.648 152.654,9.105C153.134,9.562 153.374,10.128 153.374,10.804C153.374,11.148 153.304,11.486 153.163,11.818C153.023,12.15 152.789,12.5 152.463,12.867C152.137,13.234 151.595,13.738 150.837,14.378C150.204,14.91 149.798,15.27 149.618,15.46C149.439,15.649 149.29,15.839 149.173,16.031L153.386,16.031Z" style="fill:white;fill-rule:nonzero;"/>
            <path d="M154.517,12.808C154.517,11.793 154.621,10.975 154.83,10.356C155.039,9.737 155.35,9.259 155.762,8.923C156.174,8.587 156.693,8.419 157.318,8.419C157.779,8.419 158.183,8.512 158.531,8.698C158.878,8.883 159.165,9.151 159.392,9.501C159.618,9.85 159.796,10.276 159.925,10.778C160.054,11.28 160.118,11.957 160.118,12.808C160.118,13.816 160.015,14.629 159.808,15.249C159.601,15.868 159.291,16.346 158.879,16.684C158.467,17.022 157.947,17.191 157.318,17.191C156.49,17.191 155.839,16.894 155.366,16.3C154.8,15.585 154.517,14.421 154.517,12.808ZM155.601,12.808C155.601,14.218 155.766,15.157 156.096,15.624C156.426,16.09 156.833,16.324 157.318,16.324C157.802,16.324 158.209,16.089 158.539,15.621C158.869,15.152 159.034,14.214 159.034,12.808C159.034,11.394 158.869,10.455 158.539,9.99C158.209,9.525 157.798,9.293 157.306,9.293C156.822,9.293 156.435,9.498 156.146,9.908C155.782,10.431 155.601,11.398 155.601,12.808Z" style="fill:white;fill-rule:nonzero;"/>
        </g>
        <g transform="matrix(1.90165,5.55112e-17,-5.55112e-17,1.90165,-167.008,298.49)">
            <path d="M151.816,17.044L150.761,17.044L150.761,10.324C150.507,10.566 150.174,10.808 149.762,11.05C149.35,11.293 148.98,11.474 148.652,11.595L148.652,10.576C149.241,10.298 149.757,9.962 150.198,9.568C150.64,9.173 150.952,8.791 151.136,8.419L151.816,8.419L151.816,17.044Z" style="fill:white;fill-rule:nonzero;"/>
            <path d="M154.675,15.058L155.689,14.964C155.775,15.441 155.939,15.787 156.181,16.002C156.423,16.216 156.734,16.324 157.113,16.324C157.437,16.324 157.721,16.25 157.965,16.101C158.209,15.953 158.409,15.754 158.566,15.506C158.722,15.258 158.853,14.923 158.958,14.502C159.064,14.08 159.116,13.65 159.116,13.212C159.116,13.166 159.115,13.095 159.111,13.002C158.9,13.337 158.612,13.61 158.246,13.819C157.881,14.028 157.486,14.132 157.06,14.132C156.349,14.132 155.747,13.875 155.255,13.359C154.763,12.843 154.517,12.164 154.517,11.32C154.517,10.449 154.774,9.748 155.287,9.216C155.801,8.685 156.445,8.419 157.218,8.419C157.777,8.419 158.287,8.57 158.75,8.871C159.213,9.171 159.565,9.6 159.805,10.157C160.045,10.713 160.165,11.519 160.165,12.574C160.165,13.671 160.046,14.545 159.808,15.196C159.57,15.846 159.215,16.341 158.744,16.681C158.274,17.021 157.722,17.191 157.089,17.191C156.417,17.191 155.868,17.004 155.443,16.631C155.017,16.258 154.761,15.734 154.675,15.058ZM158.993,11.267C158.993,10.662 158.832,10.181 158.51,9.826C158.188,9.47 157.8,9.293 157.347,9.293C156.878,9.293 156.47,9.484 156.122,9.867C155.775,10.25 155.601,10.746 155.601,11.355C155.601,11.902 155.766,12.346 156.096,12.688C156.426,13.03 156.833,13.201 157.318,13.201C157.806,13.201 158.207,13.03 158.522,12.688C158.836,12.346 158.993,11.873 158.993,11.267Z" style="fill:white;fill-rule:nonzero;"/>
        </g>
        <g transform="matrix(1.90165,5.55112e-17,-5.55112e-17,1.90165,-26.9072,29.6164)">
            <path d="M151.816,17.044L150.761,17.044L150.761,10.324C150.507,10.566 150.174,10.808 149.762,11.05C149.35,11.293 148.98,11.474 148.652,11.595L148.652,10.576C149.241,10.298 149.757,9.962 150.198,9.568C150.64,9.173 150.952,8.791 151.136,8.419L151.816,8.419L151.816,17.044Z" style="fill:white;fill-rule:nonzero;"/>
            <path d="M156.14,12.386C155.702,12.226 155.378,11.998 155.167,11.701C154.956,11.404 154.851,11.048 154.851,10.634C154.851,10.009 155.075,9.484 155.525,9.058C155.974,8.632 156.572,8.419 157.318,8.419C158.068,8.419 158.671,8.637 159.128,9.073C159.585,9.508 159.814,10.039 159.814,10.664C159.814,11.062 159.709,11.409 159.5,11.704C159.291,11.999 158.974,12.226 158.548,12.386C159.075,12.558 159.477,12.835 159.752,13.218C160.028,13.601 160.165,14.058 160.165,14.589C160.165,15.324 159.906,15.941 159.386,16.441C158.866,16.941 158.183,17.191 157.335,17.191C156.488,17.191 155.804,16.94 155.284,16.438C154.765,15.936 154.505,15.31 154.505,14.56C154.505,14.002 154.647,13.534 154.93,13.157C155.213,12.78 155.616,12.523 156.14,12.386ZM155.929,10.599C155.929,11.005 156.06,11.337 156.322,11.595C156.583,11.853 156.923,11.982 157.341,11.982C157.747,11.982 158.08,11.854 158.34,11.598C158.6,11.342 158.73,11.029 158.73,10.658C158.73,10.271 158.596,9.946 158.328,9.682C158.061,9.418 157.728,9.287 157.329,9.287C156.927,9.287 156.593,9.416 156.327,9.673C156.062,9.931 155.929,10.24 155.929,10.599ZM155.589,14.566C155.589,14.867 155.66,15.158 155.803,15.439C155.946,15.72 156.157,15.938 156.439,16.092C156.72,16.247 157.023,16.324 157.347,16.324C157.851,16.324 158.267,16.162 158.595,15.837C158.923,15.513 159.087,15.101 159.087,14.601C159.087,14.093 158.918,13.673 158.58,13.341C158.242,13.009 157.82,12.843 157.312,12.843C156.816,12.843 156.405,13.007 156.078,13.335C155.752,13.664 155.589,14.074 155.589,14.566Z" style="fill:white;fill-rule:nonzero;"/>
        </g>
        <g transform="matrix(1.90165,0,0,1.90165,-68.5964,297.683)">
            <path d="M151.816,17.044L150.761,17.044L150.761,10.324C150.507,10.566 150.174,10.808 149.762,11.05C149.35,11.293 148.98,11.474 148.652,11.595L148.652,10.576C149.241,10.298 149.757,9.962 150.198,9.568C150.64,9.173 150.952,8.791 151.136,8.419L151.816,8.419L151.816,17.044Z" style="fill:white;fill-rule:nonzero;"/>
            <path d="M154.587,9.58L154.587,8.566L160.148,8.566L160.148,9.386C159.601,9.968 159.059,10.742 158.522,11.707C157.985,12.671 157.57,13.664 157.277,14.683C157.066,15.402 156.931,16.189 156.872,17.044L155.788,17.044C155.8,16.369 155.933,15.552 156.187,14.595C156.441,13.638 156.805,12.715 157.28,11.827C157.754,10.938 158.259,10.189 158.794,9.58L154.587,9.58Z" style="fill:white;fill-rule:nonzero;"/>
        </g>
        <g transform="matrix(1.90165,5.55112e-17,-5.55112e-17,1.90165,-248.374,240.174)">
            <path d="M151.816,17.044L150.761,17.044L150.761,10.324C150.507,10.566 150.174,10.808 149.762,11.05C149.35,11.293 148.98,11.474 148.652,11.595L148.652,10.576C149.241,10.298 149.757,9.962 150.198,9.568C150.64,9.173 150.952,8.791 151.136,8.419L151.816,8.419L151.816,17.044Z" style="fill:white;fill-rule:nonzero;"/>
            <path d="M159.99,10.558L158.941,10.64C158.847,10.226 158.714,9.925 158.542,9.738C158.257,9.437 157.906,9.287 157.488,9.287C157.152,9.287 156.857,9.38 156.603,9.568C156.271,9.81 156.009,10.164 155.818,10.628C155.626,11.093 155.527,11.755 155.519,12.615C155.773,12.228 156.083,11.941 156.45,11.753C156.818,11.566 157.202,11.472 157.605,11.472C158.308,11.472 158.907,11.731 159.401,12.249C159.895,12.766 160.142,13.435 160.142,14.255C160.142,14.794 160.026,15.295 159.793,15.758C159.561,16.221 159.241,16.576 158.835,16.822C158.429,17.068 157.968,17.191 157.452,17.191C156.573,17.191 155.857,16.868 155.302,16.221C154.747,15.575 154.47,14.509 154.47,13.025C154.47,11.365 154.777,10.158 155.39,9.404C155.925,8.748 156.646,8.419 157.552,8.419C158.228,8.419 158.782,8.609 159.213,8.988C159.645,9.367 159.904,9.89 159.99,10.558ZM155.683,14.261C155.683,14.625 155.76,14.972 155.914,15.304C156.069,15.636 156.284,15.889 156.562,16.063C156.839,16.237 157.13,16.324 157.435,16.324C157.88,16.324 158.263,16.144 158.583,15.785C158.904,15.425 159.064,14.937 159.064,14.32C159.064,13.726 158.906,13.258 158.589,12.917C158.273,12.575 157.874,12.404 157.394,12.404C156.917,12.404 156.513,12.575 156.181,12.917C155.849,13.258 155.683,13.707 155.683,14.261Z" style="fill:white;fill-rule:nonzero;"/>
        </g>
        <g transform="matrix(1.90165,5.55112e-17,-5.55112e-17,1.90165,8.87911,241.915)">
            <path d="M151.816,17.044L150.761,17.044L150.761,10.324C150.507,10.566 150.174,10.808 149.762,11.05C149.35,11.293 148.98,11.474 148.652,11.595L148.652,10.576C149.241,10.298 149.757,9.962 150.198,9.568C150.64,9.173 150.952,8.791 151.136,8.419L151.816,8.419L151.816,17.044Z" style="fill:white;fill-rule:nonzero;"/>
            <path d="M154.517,14.794L155.624,14.701C155.706,15.24 155.897,15.645 156.196,15.917C156.494,16.188 156.855,16.324 157.277,16.324C157.784,16.324 158.214,16.132 158.566,15.75C158.917,15.367 159.093,14.859 159.093,14.226C159.093,13.625 158.924,13.15 158.586,12.802C158.248,12.455 157.806,12.281 157.259,12.281C156.919,12.281 156.613,12.358 156.339,12.512C156.066,12.667 155.851,12.867 155.695,13.113L154.704,12.984L155.536,8.572L159.808,8.572L159.808,9.58L156.38,9.58L155.917,11.888C156.433,11.529 156.974,11.349 157.54,11.349C158.29,11.349 158.923,11.609 159.439,12.128C159.954,12.648 160.212,13.316 160.212,14.132C160.212,14.91 159.986,15.582 159.532,16.148C158.982,16.843 158.23,17.191 157.277,17.191C156.495,17.191 155.858,16.972 155.364,16.535C154.869,16.097 154.587,15.517 154.517,14.794Z" style="fill:white;fill-rule:nonzero;"/>
        </g>
        <g transform="matrix(1.90165,0,0,1.90165,-267.519,106.45)">
            <path d="M151.816,17.044L150.761,17.044L150.761,10.324C150.507,10.566 150.174,10.808 149.762,11.05C149.35,11.293 148.98,11.474 148.652,11.595L148.652,10.576C149.241,10.298 149.757,9.962 150.198,9.568C150.64,9.173 150.952,8.791 151.136,8.419L151.816,8.419L151.816,17.044Z" style="fill:white;fill-rule:nonzero;"/>
            <path d="M157.898,17.044L157.898,14.988L154.171,14.988L154.171,14.021L158.091,8.455L158.952,8.455L158.952,14.021L160.113,14.021L160.113,14.988L158.952,14.988L158.952,17.044L157.898,17.044ZM157.898,14.021L157.898,10.148L155.208,14.021L157.898,14.021Z" style="fill:white;fill-rule:nonzero;"/>
        </g>
        <g transform="matrix(1.90165,5.55112e-17,-5.55112e-17,1.90165,29.1259,105.203)">
            <path d="M151.816,17.044L150.761,17.044L150.761,10.324C150.507,10.566 150.174,10.808 149.762,11.05C149.35,11.293 148.98,11.474 148.652,11.595L148.652,10.576C149.241,10.298 149.757,9.962 150.198,9.568C150.64,9.173 150.952,8.791 151.136,8.419L151.816,8.419L151.816,17.044Z" style="fill:white;fill-rule:nonzero;"/>
            <path d="M154.523,14.777L155.577,14.636C155.698,15.234 155.905,15.665 156.196,15.928C156.487,16.192 156.841,16.324 157.259,16.324C157.755,16.324 158.174,16.152 158.516,15.808C158.858,15.464 159.029,15.039 159.029,14.531C159.029,14.046 158.87,13.647 158.554,13.333C158.238,13.018 157.835,12.861 157.347,12.861C157.148,12.861 156.9,12.9 156.603,12.978L156.72,12.052C156.79,12.06 156.847,12.064 156.89,12.064C157.339,12.064 157.743,11.947 158.103,11.712C158.462,11.478 158.642,11.117 158.642,10.628C158.642,10.242 158.511,9.921 158.249,9.668C157.988,9.414 157.65,9.287 157.236,9.287C156.825,9.287 156.484,9.416 156.21,9.673C155.937,9.931 155.761,10.318 155.683,10.834L154.628,10.646C154.757,9.939 155.05,9.391 155.507,9.002C155.964,8.614 156.532,8.419 157.212,8.419C157.681,8.419 158.113,8.52 158.507,8.721C158.902,8.922 159.203,9.197 159.412,9.544C159.621,9.892 159.726,10.261 159.726,10.652C159.726,11.023 159.626,11.361 159.427,11.666C159.228,11.97 158.933,12.212 158.542,12.392C159.05,12.509 159.445,12.752 159.726,13.122C160.007,13.491 160.148,13.953 160.148,14.507C160.148,15.257 159.874,15.893 159.327,16.415C158.781,16.936 158.089,17.197 157.253,17.197C156.499,17.197 155.873,16.972 155.375,16.523C154.877,16.074 154.593,15.492 154.523,14.777Z" style="fill:white;fill-rule:nonzero;"/>
        </g>
        <g transform="matrix(1.90165,-5.55112e-17,5.55112e-17,1.90165,-211.475,26.7759)">
            <path d="M151.816,17.044L150.761,17.044L150.761,10.324C150.507,10.566 150.174,10.808 149.762,11.05C149.35,11.293 148.98,11.474 148.652,11.595L148.652,10.576C149.241,10.298 149.757,9.962 150.198,9.568C150.64,9.173 150.952,8.791 151.136,8.419L151.816,8.419L151.816,17.044Z" style="fill:white;fill-rule:nonzero;"/>
            <path d="M160.06,16.031L160.06,17.044L154.382,17.044C154.374,16.791 154.415,16.546 154.505,16.312C154.65,15.925 154.881,15.544 155.199,15.169C155.518,14.794 155.978,14.361 156.579,13.869C157.513,13.103 158.144,12.497 158.472,12.049C158.8,11.602 158.964,11.179 158.964,10.781C158.964,10.363 158.815,10.01 158.516,9.723C158.217,9.436 157.827,9.293 157.347,9.293C156.839,9.293 156.433,9.445 156.128,9.75C155.823,10.054 155.669,10.476 155.665,11.015L154.581,10.904C154.656,10.095 154.935,9.479 155.419,9.055C155.904,8.631 156.554,8.419 157.37,8.419C158.195,8.419 158.847,8.648 159.327,9.105C159.808,9.562 160.048,10.128 160.048,10.804C160.048,11.148 159.978,11.486 159.837,11.818C159.697,12.15 159.463,12.5 159.137,12.867C158.811,13.234 158.269,13.738 157.511,14.378C156.878,14.91 156.472,15.27 156.292,15.46C156.113,15.649 155.964,15.839 155.847,16.031L160.06,16.031Z" style="fill:white;fill-rule:nonzero;"/>
        </g>
        <g transform="matrix(1.90165,5.55112e-17,-5.55112e-17,1.90165,-269.693,153.187)">
            <path d="M151.816,17.044L150.761,17.044L150.761,10.324C150.507,10.566 150.174,10.808 149.762,11.05C149.35,11.293 148.98,11.474 148.652,11.595L148.652,10.576C149.241,10.298 149.757,9.962 150.198,9.568C150.64,9.173 150.952,8.791 151.136,8.419L151.816,8.419L151.816,17.044Z" style="fill:white;fill-rule:nonzero;"/>
            <path d="M157.599,17.044L156.544,17.044L156.544,10.324C156.29,10.566 155.957,10.808 155.545,11.05C155.133,11.293 154.763,11.474 154.435,11.595L154.435,10.576C155.025,10.298 155.54,9.962 155.982,9.568C156.423,9.173 156.736,8.791 156.919,8.419L157.599,8.419L157.599,17.044Z" style="fill:white;fill-rule:nonzero;"/>
        </g>
        <g transform="matrix(1.90165,5.55112e-17,-5.55112e-17,1.90165,27.6821,198.113)">
            <path d="M151.816,17.044L150.761,17.044L150.761,10.324C150.507,10.566 150.174,10.808 149.762,11.05C149.35,11.293 148.98,11.474 148.652,11.595L148.652,10.576C149.241,10.298 149.757,9.962 150.198,9.568C150.64,9.173 150.952,8.791 151.136,8.419L151.816,8.419L151.816,17.044Z" style="fill:white;fill-rule:nonzero;"/>
            <path d="M154.517,12.808C154.517,11.793 154.621,10.975 154.83,10.356C155.039,9.737 155.35,9.259 155.762,8.923C156.174,8.587 156.693,8.419 157.318,8.419C157.779,8.419 158.183,8.512 158.531,8.698C158.878,8.883 159.165,9.151 159.392,9.501C159.618,9.85 159.796,10.276 159.925,10.778C160.054,11.28 160.118,11.957 160.118,12.808C160.118,13.816 160.015,14.629 159.808,15.249C159.601,15.868 159.291,16.346 158.879,16.684C158.467,17.022 157.947,17.191 157.318,17.191C156.49,17.191 155.839,16.894 155.366,16.3C154.8,15.585 154.517,14.421 154.517,12.808ZM155.601,12.808C155.601,14.218 155.766,15.157 156.096,15.624C156.426,16.09 156.833,16.324 157.318,16.324C157.802,16.324 158.209,16.089 158.539,15.621C158.869,15.152 159.034,14.214 159.034,12.808C159.034,11.394 158.869,10.455 158.539,9.99C158.209,9.525 157.798,9.293 157.306,9.293C156.822,9.293 156.435,9.498 156.146,9.908C155.782,10.431 155.601,11.398 155.601,12.808Z" style="fill:white;fill-rule:nonzero;"/>
        </g>
        <g transform="matrix(1.90165,5.55112e-17,-5.55112e-17,1.90165,-239.653,60.4445)">
            <path d="M148.001,15.058L149.015,14.964C149.101,15.441 149.265,15.787 149.507,16.002C149.749,16.216 150.06,16.324 150.439,16.324C150.763,16.324 151.047,16.25 151.291,16.101C151.535,15.953 151.736,15.754 151.892,15.506C152.048,15.258 152.179,14.923 152.284,14.502C152.39,14.08 152.443,13.65 152.443,13.212C152.443,13.166 152.441,13.095 152.437,13.002C152.226,13.337 151.938,13.61 151.573,13.819C151.207,14.028 150.812,14.132 150.386,14.132C149.675,14.132 149.073,13.875 148.581,13.359C148.089,12.843 147.843,12.164 147.843,11.32C147.843,10.449 148.1,9.748 148.614,9.216C149.127,8.685 149.771,8.419 150.544,8.419C151.103,8.419 151.614,8.57 152.076,8.871C152.539,9.171 152.891,9.6 153.131,10.157C153.371,10.713 153.491,11.519 153.491,12.574C153.491,13.671 153.372,14.545 153.134,15.196C152.896,15.846 152.541,16.341 152.071,16.681C151.6,17.021 151.048,17.191 150.415,17.191C149.743,17.191 149.195,17.004 148.769,16.631C148.343,16.258 148.087,15.734 148.001,15.058ZM152.32,11.267C152.32,10.662 152.158,10.181 151.836,9.826C151.514,9.47 151.126,9.293 150.673,9.293C150.204,9.293 149.796,9.484 149.448,9.867C149.101,10.25 148.927,10.746 148.927,11.355C148.927,11.902 149.092,12.346 149.422,12.688C149.752,13.03 150.159,13.201 150.644,13.201C151.132,13.201 151.533,13.03 151.848,12.688C152.162,12.346 152.32,11.873 152.32,11.267Z" style="fill:white;fill-rule:nonzero;"/>
        </g>
        <g transform="matrix(1.90165,5.55112e-17,-5.55112e-17,1.90165,-259.655,199.005)">
            <path d="M149.466,12.386C149.029,12.226 148.704,11.998 148.493,11.701C148.282,11.404 148.177,11.048 148.177,10.634C148.177,10.009 148.402,9.484 148.851,9.058C149.3,8.632 149.898,8.419 150.644,8.419C151.394,8.419 151.997,8.637 152.454,9.073C152.911,9.508 153.14,10.039 153.14,10.664C153.14,11.062 153.035,11.409 152.826,11.704C152.617,11.999 152.3,12.226 151.874,12.386C152.402,12.558 152.803,12.835 153.078,13.218C153.354,13.601 153.491,14.058 153.491,14.589C153.491,15.324 153.232,15.941 152.712,16.441C152.193,16.941 151.509,17.191 150.661,17.191C149.814,17.191 149.13,16.94 148.611,16.438C148.091,15.936 147.831,15.31 147.831,14.56C147.831,14.002 147.973,13.534 148.256,13.157C148.539,12.78 148.943,12.523 149.466,12.386ZM149.255,10.599C149.255,11.005 149.386,11.337 149.648,11.595C149.909,11.853 150.249,11.982 150.667,11.982C151.073,11.982 151.407,11.854 151.666,11.598C151.926,11.342 152.056,11.029 152.056,10.658C152.056,10.271 151.922,9.946 151.655,9.682C151.387,9.418 151.054,9.287 150.656,9.287C150.253,9.287 149.919,9.416 149.654,9.673C149.388,9.931 149.255,10.24 149.255,10.599ZM148.915,14.566C148.915,14.867 148.987,15.158 149.129,15.439C149.272,15.72 149.484,15.938 149.765,16.092C150.046,16.247 150.349,16.324 150.673,16.324C151.177,16.324 151.593,16.162 151.921,15.837C152.249,15.513 152.413,15.101 152.413,14.601C152.413,14.093 152.244,13.673 151.907,13.341C151.569,13.009 151.146,12.843 150.638,12.843C150.142,12.843 149.731,13.007 149.405,13.335C149.078,13.664 148.915,14.074 148.915,14.566Z" style="fill:white;fill-rule:nonzero;"/>
        </g>
        <g transform="matrix(1.90165,5.55112e-17,-5.55112e-17,1.90165,-201.155,277.844)">
            <path d="M147.913,9.58L147.913,8.566L153.474,8.566L153.474,9.386C152.927,9.968 152.385,10.742 151.848,11.707C151.311,12.671 150.896,13.664 150.603,14.683C150.392,15.402 150.257,16.189 150.198,17.044L149.115,17.044C149.126,16.369 149.259,15.552 149.513,14.595C149.767,13.638 150.131,12.715 150.606,11.827C151.08,10.938 151.585,10.189 152.12,9.58L147.913,9.58Z" style="fill:white;fill-rule:nonzero;"/>
        </g>
        <g transform="matrix(1.90165,5.55112e-17,-5.55112e-17,1.90165,43.0891,151.722)">
            <path d="M153.316,10.558L152.267,10.64C152.173,10.226 152.04,9.925 151.868,9.738C151.583,9.437 151.232,9.287 150.814,9.287C150.478,9.287 150.183,9.38 149.929,9.568C149.597,9.81 149.335,10.164 149.144,10.628C148.952,11.093 148.853,11.755 148.845,12.615C149.099,12.228 149.409,11.941 149.777,11.753C150.144,11.566 150.529,11.472 150.931,11.472C151.634,11.472 152.233,11.731 152.727,12.249C153.221,12.766 153.468,13.435 153.468,14.255C153.468,14.794 153.352,15.295 153.119,15.758C152.887,16.221 152.568,16.576 152.161,16.822C151.755,17.068 151.294,17.191 150.779,17.191C149.9,17.191 149.183,16.868 148.628,16.221C148.073,15.575 147.796,14.509 147.796,13.025C147.796,11.365 148.103,10.158 148.716,9.404C149.251,8.748 149.972,8.419 150.878,8.419C151.554,8.419 152.108,8.609 152.539,8.988C152.971,9.367 153.23,9.89 153.316,10.558ZM149.009,14.261C149.009,14.625 149.086,14.972 149.24,15.304C149.395,15.636 149.611,15.889 149.888,16.063C150.165,16.237 150.456,16.324 150.761,16.324C151.206,16.324 151.589,16.144 151.909,15.785C152.23,15.425 152.39,14.937 152.39,14.32C152.39,13.726 152.232,13.258 151.915,12.917C151.599,12.575 151.2,12.404 150.72,12.404C150.243,12.404 149.839,12.575 149.507,12.917C149.175,13.258 149.009,13.707 149.009,14.261Z" style="fill:white;fill-rule:nonzero;"/>
        </g>
        <g transform="matrix(1.90165,5.55112e-17,-5.55112e-17,1.90165,-159.996,4.04143)">
            <path d="M147.843,14.794L148.95,14.701C149.032,15.24 149.223,15.645 149.522,15.917C149.821,16.188 150.181,16.324 150.603,16.324C151.111,16.324 151.54,16.132 151.892,15.75C152.243,15.367 152.419,14.859 152.419,14.226C152.419,13.625 152.25,13.15 151.912,12.802C151.574,12.455 151.132,12.281 150.585,12.281C150.245,12.281 149.939,12.358 149.665,12.512C149.392,12.667 149.177,12.867 149.021,13.113L148.031,12.984L148.863,8.572L153.134,8.572L153.134,9.58L149.706,9.58L149.243,11.888C149.759,11.529 150.3,11.349 150.866,11.349C151.616,11.349 152.249,11.609 152.765,12.128C153.281,12.648 153.538,13.316 153.538,14.132C153.538,14.91 153.312,15.582 152.859,16.148C152.308,16.843 151.556,17.191 150.603,17.191C149.822,17.191 149.184,16.972 148.69,16.535C148.196,16.097 147.913,15.517 147.843,14.794Z" style="fill:white;fill-rule:nonzero;"/>
        </g>
        <g transform="matrix(1.90165,0,0,1.90165,12.8524,60.8526)">
            <path d="M151.224,17.044L151.224,14.988L147.497,14.988L147.497,14.021L151.417,8.455L152.279,8.455L152.279,14.021L153.439,14.021L153.439,14.988L152.279,14.988L152.279,17.044L151.224,17.044ZM151.224,14.021L151.224,10.148L148.534,14.021L151.224,14.021Z" style="fill:white;fill-rule:nonzero;"/>
        </g>
        <g transform="matrix(1.90165,5.55112e-17,-5.55112e-17,1.90165,-112.2,305.939)">
            <path d="M147.849,14.777L148.904,14.636C149.025,15.234 149.231,15.665 149.522,15.928C149.813,16.192 150.167,16.324 150.585,16.324C151.081,16.324 151.5,16.152 151.842,15.808C152.184,15.464 152.355,15.039 152.355,14.531C152.355,14.046 152.197,13.647 151.88,13.333C151.564,13.018 151.161,12.861 150.673,12.861C150.474,12.861 150.226,12.9 149.929,12.978L150.046,12.052C150.116,12.06 150.173,12.064 150.216,12.064C150.665,12.064 151.07,11.947 151.429,11.712C151.788,11.478 151.968,11.117 151.968,10.628C151.968,10.242 151.837,9.921 151.575,9.668C151.314,9.414 150.976,9.287 150.562,9.287C150.152,9.287 149.81,9.416 149.536,9.673C149.263,9.931 149.087,10.318 149.009,10.834L147.954,10.646C148.083,9.939 148.376,9.391 148.833,9.002C149.29,8.614 149.859,8.419 150.538,8.419C151.007,8.419 151.439,8.52 151.833,8.721C152.228,8.922 152.53,9.197 152.739,9.544C152.948,9.892 153.052,10.261 153.052,10.652C153.052,11.023 152.952,11.361 152.753,11.666C152.554,11.97 152.259,12.212 151.868,12.392C152.376,12.509 152.771,12.752 153.052,13.122C153.333,13.491 153.474,13.953 153.474,14.507C153.474,15.257 153.2,15.893 152.654,16.415C152.107,16.936 151.415,17.197 150.579,17.197C149.825,17.197 149.199,16.972 148.701,16.523C148.203,16.074 147.919,15.492 147.849,14.777Z" style="fill:white;fill-rule:nonzero;"/>
        </g>
        <g transform="matrix(1.90165,5.55112e-17,-5.55112e-17,1.90165,-18.2977,274.688)">
            <path d="M153.386,16.031L153.386,17.044L147.708,17.044C147.7,16.791 147.741,16.546 147.831,16.312C147.976,15.925 148.207,15.544 148.526,15.169C148.844,14.794 149.304,14.361 149.906,13.869C150.839,13.103 151.47,12.497 151.798,12.049C152.126,11.602 152.29,11.179 152.29,10.781C152.29,10.363 152.141,10.01 151.842,9.723C151.543,9.436 151.154,9.293 150.673,9.293C150.165,9.293 149.759,9.445 149.454,9.75C149.15,10.054 148.995,10.476 148.991,11.015L147.907,10.904C147.982,10.095 148.261,9.479 148.745,9.055C149.23,8.631 149.88,8.419 150.697,8.419C151.521,8.419 152.173,8.648 152.654,9.105C153.134,9.562 153.374,10.128 153.374,10.804C153.374,11.148 153.304,11.486 153.163,11.818C153.023,12.15 152.789,12.5 152.463,12.867C152.137,13.234 151.595,13.738 150.837,14.378C150.204,14.91 149.798,15.27 149.618,15.46C149.439,15.649 149.29,15.839 149.173,16.031L153.386,16.031Z" style="fill:white;fill-rule:nonzero;"/>
        </g>
        <g transform="matrix(1.90165,5.55112e-17,-5.55112e-17,1.90165,-61.4787,5.12716)">
            <path d="M151.816,17.044L150.761,17.044L150.761,10.324C150.507,10.566 150.174,10.808 149.762,11.05C149.35,11.293 148.98,11.474 148.652,11.595L148.652,10.576C149.241,10.298 149.757,9.962 150.198,9.568C150.64,9.173 150.952,8.791 151.136,8.419L151.816,8.419L151.816,17.044Z" style="fill:white;fill-rule:nonzero;"/>
        </g>
    </g>
    <g id="Board" transform="matrix(0.923872,0.169745,-0.169745,0.923872,43.4792,-16.654)">
        <g transform="matrix(0.971837,0,0,0.936149,3.98937,10.7219)">
            <g id="_25" serif:id="25">
                <ellipse id="OuterBull" cx="177.307" cy="176.91" rx="36.016" ry="37.685" style="fill:rgb(0,255,0);"/>
            </g>
        </g>
        <g transform="matrix(0.428301,-2.77316e-17,2.79828e-17,0.43218,100.763,101.825)">
            <g id="_50" serif:id="50">
                <circle id="InnerBull" cx="176.889" cy="173.102" r="49.185" style="fill:rgb(255,0,0);stroke:black;stroke-width:2.47px;"/>
            </g>
        </g>
        <g id="White-Lines" serif:id="White Lines" transform="matrix(1,0,0,1,0.0543207,-0.12939)">
            <g id="_19" serif:id="19" transform="matrix(-0.790492,-0.612473,0.612473,-0.790492,207.978,424.556)">
                <path d="M123.358,39.422C109.76,45 95.43,53.136 83.762,61.931L154.654,148.507L165.213,142.615L123.358,39.422Z" style="fill:white;"/>
            </g>
            <g id="_17" serif:id="17" transform="matrix(-0.999962,-0.00873451,0.00873451,-0.999962,351.996,354.523)">
                <path d="M127.035,37.725C113.436,43.303 99.029,50.347 87.361,59.143L154.538,148.06L164.726,142.992L127.035,37.725Z" style="fill:white;"/>
            </g>
            <g id="_16" serif:id="16" transform="matrix(-0.266386,-0.963866,0.963866,-0.266386,53.4338,394.1)">
                <path d="M121.691,39.788C108.093,45.366 94.839,54.113 83.171,62.909L155.85,148.031L163.722,142.846L121.691,39.788Z" style="fill:white;"/>
            </g>
            <g id="_15" serif:id="15" transform="matrix(-0.824968,0.565179,-0.565179,-0.824968,422.709,219.729)">
                <path d="M126.376,36.538C112.778,42.116 98.936,51.019 87.268,59.815L157.004,146.071L166.52,140.91L126.376,36.538Z" style="fill:white;"/>
            </g>
            <g id="_11" serif:id="11" transform="matrix(0.330225,-0.943902,0.943902,0.330225,-48.6261,284.765)">
                <path d="M124.66,38.555C111.062,44.133 95.8,52.543 84.132,61.338L154.538,148.06L164.726,142.992L124.66,38.555Z" style="fill:white;"/>
            </g>
            <g id="_9" serif:id="9" transform="matrix(0.809105,-0.587664,0.587664,0.809105,-70.5852,137.023)">
                <path d="M127.725,39.054C114.127,44.632 99.117,51.336 87.449,60.132L155.361,148.859L164.726,142.992L127.725,39.054Z" style="fill:white;"/>
            </g>
            <g id="_6" serif:id="6" transform="matrix(-0.313612,0.949551,-0.949551,-0.313612,399.559,62.5284)">
                <path d="M128.256,37.321C114.658,42.899 100.267,50.855 88.599,59.651L156.642,147.704L166.954,142.087L128.256,37.321Z" style="fill:white;"/>
            </g>
            <path id="_5" serif:id="5" d="M127.035,37.725C113.436,43.303 99.029,50.347 87.361,59.143L154.538,148.06L164.726,142.992L127.035,37.725Z" style="fill:white;"/>
            <g id="_4" serif:id="4" transform="matrix(0.321009,0.947076,-0.947076,0.321009,289.144,-45.9235)">
                <path d="M127.238,38.399C113.64,43.977 99.029,50.347 87.361,59.143L154.538,148.06L163.954,143.766L127.238,38.399Z" style="fill:white;"/>
            </g>
            <g id="_1" serif:id="1" transform="matrix(0.822792,0.568342,-0.568342,0.822792,133.943,-68.929)">
                <path d="M128.836,37.36C115.238,42.938 99.823,49.799 88.155,58.594L154.17,148.314L164.939,143.725L128.836,37.36Z" style="fill:white;"/>
            </g>
        </g>
        <g id="Black-Lines" serif:id="Black Lines">
            <g id="_20" serif:id="20" transform="matrix(0.959245,0.282575,-0.282575,0.959245,61.353,-43.3878)">
                <path d="M127.13,38.032C113.532,43.61 97.042,50.43 85.374,59.225L151.688,149.067L162.458,143.996L127.13,38.032Z"/>
            </g>
            <g id="_18" serif:id="18" transform="matrix(0.601545,0.798839,-0.798839,0.601545,213.895,-68.5797)">
                <path d="M126.779,37.262C112.043,42.532 96.427,49.92 85.85,59.011L153.171,147.433L163.778,142.883L126.779,37.262Z"/>
            </g>
            <g id="_14" serif:id="14" transform="matrix(0.59495,-0.803762,0.803762,0.59495,-67.9349,211.531)">
                <path d="M123.116,37.025C109.517,42.603 94.751,50.513 83.083,59.309L152.317,147.306C155.131,145.118 158.301,143.413 161.758,142.095L123.116,37.025Z"/>
            </g>
            <g id="_13" serif:id="13" transform="matrix(-0.0029154,0.999996,-0.999996,-0.0029154,352.198,1.6027)">
                <path d="M126.547,35.957C112.949,41.536 97.419,49.548 85.751,58.343L154.532,146.13L163.757,141.548L126.547,35.957Z"/>
            </g>
            <g id="_12" serif:id="12" transform="matrix(0.938874,-0.344261,0.344261,0.938874,-48.864,65.2892)">
                <path d="M129.636,40.905C116.455,46.091 100.473,52.049 88.523,61.11L153.478,152.638L162.652,147.713L129.636,40.905Z"/>
            </g>
            <g id="_10" serif:id="10" transform="matrix(-0.602788,0.797902,-0.797902,-0.602788,423.748,142.445)">
                <path d="M125.107,38.375C111.463,43.169 95.905,51.914 84.282,61.469L153.609,149.165L164.726,142.992L125.107,38.375Z"/>
            </g>
            <g id="_8" serif:id="8" transform="matrix(0.0152547,-0.999884,0.999884,0.0152547,-0.369004,353.539)">
                <path d="M128.457,36.095C114.859,41.673 100.303,49.524 88.635,58.319L157.696,146.488L167.746,140.695L128.457,36.095Z"/>
            </g>
            <g id="_7" serif:id="7" transform="matrix(-0.555676,-0.831399,0.831399,-0.555676,127.513,421.107)">
                <path d="M122.35,39.235C108.752,44.814 93.806,54.399 82.139,63.195L154.538,148.06L164.726,142.992L122.35,39.235Z"/>
            </g>
            <g id="_3" serif:id="3" transform="matrix(-0.923292,-0.384099,0.384099,-0.923292,275.355,406.931)">
                <path d="M119.973,39.588C106.375,45.166 92.544,56.528 80.876,65.323L155.737,148.432L166.037,141.75L119.973,39.588Z"/>
            </g>
            <g id="_2" serif:id="2" transform="matrix(-0.974826,0.222967,-0.222967,-0.974826,392.381,304.328)">
                <path d="M121.396,38.579C107.331,43.664 93.609,54.222 82.537,63.647L158.173,146.087L166.764,140.325L121.396,38.579Z"/>
            </g>
        </g>
        <g id="RedMultipliers">
            <g id="RedDoubles">
                <g id="D_20" transform="matrix(0.959245,0.282575,-0.282575,0.959245,61.353,-43.3878)">
                    <path d="M127.732,38.089C114.151,43.168 97.52,49.963 85.836,59.206L92.811,68.404C105.033,59.954 117.007,53.971 131.359,49.576L127.732,38.089Z" style="fill:rgb(255,0,0);"/>
                </g>
                <g id="D_18" transform="matrix(0.615815,0.787891,-0.787891,0.615815,212.251,-68.7476)">
                    <path d="M127.732,38.089C114.151,43.168 97.52,49.963 85.836,59.206L92.811,68.404C105.033,59.954 117.007,53.971 131.359,49.576L127.732,38.089Z" style="fill:rgb(255,0,0);"/>
                </g>
                <g id="D_14" transform="matrix(0.540254,-0.846288,0.83919,0.535724,-66.2223,222.165)">
                    <path d="M127.732,38.089C114.151,43.168 97.985,49.3 86.302,58.543L93.266,68.19C105.487,59.74 117.007,53.971 131.359,49.576L127.732,38.089Z" style="fill:rgb(255,0,0);"/>
                </g>
                <g id="D_13" transform="matrix(0.0306205,0.999531,-0.999531,0.0306205,350.183,-1.05279)">
                    <path d="M127.732,38.089C114.151,43.168 97.52,49.963 85.836,59.206L92.811,68.404C105.033,59.954 117.007,53.971 131.359,49.576L127.732,38.089Z" style="fill:rgb(255,0,0);"/>
                </g>
                <g id="D_12" transform="matrix(0.938457,-0.356897,0.353904,0.930587,-46.8244,69.0871)">
                    <path d="M128.083,38.585C114.502,43.664 98.508,49.063 86.825,58.306L93.266,68.19C105.487,59.74 117.007,53.971 131.359,49.576L128.083,38.585Z" style="fill:rgb(255,0,0);"/>
                </g>
                <g id="D_10" transform="matrix(-0.556346,0.830951,-0.830951,-0.556346,420.672,133.969)">
                    <path d="M127.732,38.089C114.151,43.168 97.52,49.963 85.836,59.206L92.811,68.404C105.033,59.954 117.007,53.971 131.359,49.576L127.732,38.089Z" style="fill:rgb(255,0,0);"/>
                </g>
                <g id="D_8" transform="matrix(-0.0238996,-0.999714,0.999714,-0.0238996,2.59133,354.061)">
                    <path d="M127.732,38.089C114.151,43.168 98.559,49.604 86.876,58.847L93.266,68.19C105.487,59.74 117.007,53.971 131.359,49.576L127.732,38.089Z" style="fill:rgb(255,0,0);"/>
                </g>
                <g id="D_7" transform="matrix(-0.61399,-0.789314,0.789314,-0.61399,140.653,421.927)">
                    <path d="M127.732,38.089C114.151,43.168 97.52,49.963 85.836,59.206L92.811,68.404C105.033,59.954 117.007,53.971 131.359,49.576L127.732,38.089Z" style="fill:rgb(255,0,0);"/>
                </g>
                <g id="D_3" transform="matrix(-0.961695,-0.27412,0.27412,-0.961695,292.316,395.61)">
                    <path d="M127.732,38.089C114.151,43.168 97.52,49.963 85.836,59.206L92.811,68.404C105.033,59.954 117.007,53.971 131.359,49.576L127.732,38.089Z" style="fill:rgb(255,0,0);"/>
                </g>
                <g id="D_2" transform="matrix(-0.945876,0.324527,-0.324527,-0.945876,398.28,288.727)">
                    <path d="M127.232,38.046C113.652,43.125 97.52,49.963 85.836,59.206L93.114,69.022C105.335,60.572 116.432,53.773 130.784,49.379L127.232,38.046Z" style="fill:rgb(255,0,0);"/>
                </g>
            </g>
            <g id="RedTriples">
                <g id="T_20" transform="matrix(0.979425,0.22092,-0.219067,0.97121,62.6594,17.5444)">
                    <path d="M123.931,42.448C123.931,42.448 112.225,44.149 97.547,53.626L102.24,61.53C109.492,56.485 117.65,52.953 126.658,50.838L123.931,42.448Z" style="fill:rgb(255,0,0);"/>
                </g>
                <g id="T_18" transform="matrix(0.668404,0.749209,-0.742925,0.662799,177.827,-18.7703)">
                    <path d="M124.331,43.216C124.331,43.216 112.225,44.149 97.547,53.626L102.24,61.53C109.492,56.485 117.497,54.04 126.505,51.926L124.331,43.216Z" style="fill:rgb(255,0,0);"/>
                </g>
                <g id="T_14" transform="matrix(0.55803,-0.834674,0.827673,0.553351,-13.4418,229.323)">
                    <path d="M122.568,42.391C122.568,42.391 112.121,44.885 97.443,54.362L102.567,61.989C109.818,56.944 116.035,53.234 125.043,51.119L122.568,42.391Z" style="fill:rgb(255,0,0);"/>
                </g>
                <g id="T_13" transform="matrix(0.0641146,1.00198,-0.993578,0.0635769,296.152,21.0889)">
                    <path d="M122.568,42.391C122.568,42.391 112.225,44.149 97.547,53.626L102.24,61.53C109.492,56.485 116.035,53.234 125.043,51.119L122.568,42.391Z" style="fill:rgb(255,0,0);"/>
                </g>
                <g id="T_12" transform="matrix(0.938457,-0.356897,0.353904,0.930587,-7.83503,109.234)">
                    <path d="M121.964,41.959C108.383,47.038 109.465,45.991 96.796,54.421L102.24,61.53C114.461,53.081 110.427,55.14 124.779,50.745L121.964,41.959Z" style="fill:rgb(255,0,0);"/>
                </g>
                <g id="T_10" transform="matrix(-0.53613,0.848907,-0.841787,-0.531633,364.166,121.917)">
                    <path d="M122.568,42.391C122.568,42.391 110.223,44.944 95.544,54.421L100.417,61.851C107.668,56.806 116.035,53.234 125.043,51.119L122.568,42.391Z" style="fill:rgb(255,0,0);"/>
                </g>
                <g id="T_8" transform="matrix(-0.00197892,-1.00403,0.995608,-0.00196233,50.0831,327.687)">
                    <path d="M120.657,41.473C120.657,41.473 110.631,45.146 95.96,54.616C95.957,54.619 95.954,54.622 95.953,54.626C95.953,54.63 95.954,54.635 95.956,54.638C96.205,54.974 101.222,61.751 101.222,61.751C108.661,57.181 114.778,52.903 123.435,49.898L120.657,41.473Z" style="fill:rgb(255,0,0);"/>
                </g>
                <g id="T_7" transform="matrix(-0.53613,0.848907,-0.841787,-0.531633,245.296,178.421)">
                    <path d="M113.541,38.053C115.752,46.152 116.746,54.746 116.174,63.977L124.993,64.21C125.611,54.126 124.526,44.568 122.217,35.388L113.541,38.053Z" style="fill:rgb(255,0,0);"/>
                </g>
                <g id="T_3" transform="matrix(-0.53613,0.848907,-0.841787,-0.531633,291.49,185.8)">
                    <path d="M128.772,52.488C123.264,43.831 116.507,36.865 108.765,31.232L103.54,38.128C109.881,43.572 115.681,50.041 121.007,57.413L128.772,52.488Z" style="fill:rgb(255,0,0);"/>
                </g>
                <g id="T_2" transform="matrix(-0.53613,0.848907,-0.841787,-0.531633,336.975,168.515)">
                    <path d="M123.495,46.723C114.919,43.92 105.905,41.758 96.23,41.256L95.816,50.132C104.215,50.813 112.386,52.51 120.366,55.059L123.495,46.723Z" style="fill:rgb(255,0,0);"/>
                </g>
            </g>
        </g>
        <g id="GreenMultipliers" transform="matrix(0.95088,0.30956,-0.30956,0.95088,63.3001,-46.0694)">
            <g id="GreenDoubles">
                <g id="D_19" transform="matrix(-0.961695,-0.27412,0.27412,-0.961695,292.316,395.61)">
                    <path d="M127.732,38.089C114.151,43.168 97.763,49.265 86.079,58.508L92.811,68.404C105.033,59.954 117.007,53.971 131.359,49.576L127.732,38.089Z" style="fill:rgb(0,255,0);"/>
                </g>
                <g id="D_17" transform="matrix(-0.945876,0.324527,-0.324527,-0.945876,398.28,288.727)">
                    <path d="M126.191,38.473C112.61,43.552 97.52,49.963 85.836,59.206L93.114,69.022C105.335,60.572 115.541,54.055 129.893,49.66L126.191,38.473Z" style="fill:rgb(0,255,0);"/>
                </g>
                <g id="D_16" transform="matrix(-0.61399,-0.789314,0.789314,-0.61399,140.653,421.927)">
                    <path d="M127.126,38.027C113.545,43.106 98.149,49.09 86.466,58.333L93.757,67.96C105.978,59.51 116.301,54.187 130.653,49.792L127.126,38.027Z" style="fill:rgb(0,255,0);"/>
                </g>
                <g id="D_15" transform="matrix(-0.556346,0.830951,-0.830951,-0.556346,420.672,133.969)">
                    <path d="M127.732,38.089C114.151,43.168 98.342,48.917 86.658,58.16L93.758,68.396C105.979,59.946 117.007,53.971 131.359,49.576L127.732,38.089Z" style="fill:rgb(0,255,0);"/>
                </g>
                <g id="D_11" transform="matrix(-0.0238996,-0.999714,0.999714,-0.0238996,2.59133,354.061)">
                    <path d="M127.732,38.089C114.151,43.168 97.985,49.3 86.302,58.543L93.266,68.19C105.487,59.74 117.007,53.971 131.359,49.576L127.732,38.089Z" style="fill:rgb(0,255,0);"/>
                </g>
                <g id="D_9" transform="matrix(0.540254,-0.846288,0.83919,0.535724,-66.2223,222.165)">
                    <path d="M128.244,38.421C114.664,43.5 97.985,49.3 86.302,58.543L93.266,68.19C105.487,59.74 117.007,53.971 131.359,49.576L128.244,38.421Z" style="fill:rgb(0,255,0);"/>
                </g>
                <g id="D_6" transform="matrix(0.0306205,0.999531,-0.999531,0.0306205,350.183,-1.05279)">
                    <path d="M127.147,38.721C113.566,43.8 97.52,49.963 85.836,59.206L93.261,68.889C105.482,60.439 116.097,54.544 130.449,50.15L127.147,38.721Z" style="fill:rgb(0,255,0);"/>
                </g>
                <g id="D_5" transform="matrix(0.938457,-0.356897,0.353904,0.930587,-46.8244,69.0871)">
                    <path d="M127.108,38.801C113.527,43.88 98.144,49.477 86.461,58.72L93.266,68.19C105.487,59.74 116.362,55.128 130.714,50.733L127.108,38.801Z" style="fill:rgb(0,255,0);"/>
                </g>
                <g id="D_4" transform="matrix(0.615815,0.787891,-0.787891,0.615815,212.251,-68.7476)">
                    <path d="M127.113,38.493C113.533,43.572 97.81,49.597 86.127,58.84L93.228,68.556C105.449,60.106 116.477,54.564 130.829,50.169L127.113,38.493Z" style="fill:rgb(0,255,0);"/>
                </g>
                <g id="D_1" transform="matrix(0.959245,0.282575,-0.282575,0.959245,61.353,-43.3878)">
                    <path d="M127.732,38.089C114.151,43.168 98.258,49.994 86.575,59.237L93.466,68.313C105.687,59.864 117.007,53.971 131.359,49.576L127.732,38.089Z" style="fill:rgb(0,255,0);"/>
                </g>
            </g>
            <g id="GreenTriples">
                <g id="T_19" transform="matrix(-0.53613,0.848907,-0.841787,-0.531633,290.787,186.029)">
                    <path d="M128.772,52.488C123.264,43.831 116.507,36.865 108.765,31.232L103.54,38.128C109.881,43.572 115.681,50.041 121.007,57.413L128.772,52.488Z" style="fill:rgb(0,255,0);"/>
                </g>
                <g id="T_17" transform="matrix(-0.53613,0.848907,-0.841787,-0.531633,336.975,168.515)">
                    <path d="M123.495,46.723C114.919,43.92 105.905,41.758 96.23,41.256L95.816,50.132C104.215,50.813 112.386,52.51 120.366,55.059L123.495,46.723Z" style="fill:rgb(0,255,0);"/>
                </g>
                <g id="T_16" transform="matrix(-0.53613,0.848907,-0.841787,-0.531633,245.296,178.421)">
                    <path d="M113.712,38.775C115.923,46.874 116.724,53.378 116.153,62.608L125.085,62.936C125.703,52.853 124.603,45.404 122.294,36.224L113.712,38.775Z" style="fill:rgb(0,255,0);"/>
                </g>
                <g id="T_15" transform="matrix(-0.53613,0.848907,-0.841787,-0.531633,364.166,121.917)">
                    <path d="M121.888,41.822C121.888,41.822 111.389,43.991 96.711,53.469L101.81,61.088C109.061,56.043 115.319,53.406 124.327,51.292L121.888,41.822Z" style="fill:rgb(0,255,0);"/>
                </g>
                <g id="T_11" transform="matrix(-0.00197892,-1.00403,0.995608,-0.00196233,50.0831,327.687)">
                    <path d="M120.657,41.473C120.657,41.473 110.631,45.146 95.96,54.616C95.957,54.619 95.954,54.622 95.953,54.626C95.953,54.63 95.954,54.635 95.956,54.638C96.205,54.974 101.222,61.751 101.222,61.751C108.661,57.181 114.778,52.903 123.435,49.898L120.657,41.473Z" style="fill:rgb(0,255,0);"/>
                </g>
                <g id="T_9" transform="matrix(0.55803,-0.834674,0.827673,0.553351,-13.4418,229.323)">
                    <path d="M122.568,42.391C122.568,42.391 111.112,45.218 96.434,54.695L101.996,62.481C109.248,57.435 116.035,53.234 125.043,51.119L122.568,42.391Z" style="fill:rgb(0,255,0);"/>
                </g>
                <g id="T_6" transform="matrix(0.0641146,1.00198,-0.993578,0.0635769,296.152,21.0889)">
                    <path d="M122.568,42.391C122.568,42.391 111.728,44.584 97.05,54.061L102.24,61.53C109.492,56.485 116.035,53.234 125.043,51.119L122.568,42.391Z" style="fill:rgb(0,255,0);"/>
                </g>
                <g id="T_5" transform="matrix(0.938457,-0.356897,0.353904,0.930587,-7.83503,109.234)">
                    <path d="M121.964,41.959C108.383,47.038 109.465,45.991 96.796,54.421L102.24,61.53C114.461,53.081 110.427,55.14 124.779,50.745L121.964,41.959Z" style="fill:rgb(0,255,0);"/>
                </g>
                <g id="T_4" transform="matrix(0.668404,0.749209,-0.742925,0.662799,177.827,-18.7703)">
                    <path d="M123.269,43.071C123.269,43.071 112.225,44.149 97.547,53.626L102.24,61.53C109.492,56.485 117.168,54.057 126.176,51.942L123.269,43.071Z" style="fill:rgb(0,255,0);"/>
                </g>
                <g id="T_1" transform="matrix(0.979425,0.22092,-0.219067,0.97121,62.6594,17.5444)">
                    <path d="M123.931,42.448C123.931,42.448 112.933,43.897 98.255,53.374L102.797,61.023C110.049,55.978 117.65,52.953 126.658,50.838L123.931,42.448Z" style="fill:rgb(0,255,0);"/>
                </g>
            </g>
        </g>
        <path id="Board1" serif:id="Board" d="M173,29.5L176.5,141M218.66,35.113L188,142.904M260.667,55.356L198,148.249M205.5,156.019L293.669,86.89M315.702,127.603L210,164.724M211.5,175.5L323.944,172.382M317.758,219.091L210.096,188M297.694,260.596L205.5,196.981M198,204.5L265.761,293.935M226,315.5L188.276,210M176.5,212L180.007,323.959M134.45,317.919L164.724,210M154.674,204.5L92.121,297.497M59.5,266L148,197.67M142.904,188L37.395,225.672M29,180L141,176.5M142.508,166.23L35,134.5M147.5,156.019L69.804,102.528L55.334,92.364M87,59.5L154.674,148.249M127,37.5L165,142.904M267,176.5C267,225.308 228.364,265.091 180.007,266.933C178.844,266.978 177.674,267 176.5,267C126.518,267 86,226.482 86,176.5C86,126.518 126.518,86 176.5,86C226.482,86 267,126.518 267,176.5ZM258,176.5C258,221.03 222.287,257.219 177.941,257.988C177.461,257.996 176.981,258 176.5,258C168.068,258 159.935,256.719 152.285,254.342C119.098,244.029 95,213.079 95,176.5C95,131.489 131.489,95 176.5,95C221.511,95 258,131.489 258,176.5ZM212,176.5C212,196.106 196.106,212 176.5,212C156.894,212 141,196.106 141,176.5C141,156.894 156.894,141 176.5,141C196.106,141 212,156.894 212,176.5ZM324,176.5C324,257.962 257.962,324 176.5,324C95.038,324 29,257.962 29,176.5C29,95.038 95.038,29 176.5,29C257.962,29 324,95.038 324,176.5ZM312,176.5C312,251.335 251.335,312 176.5,312C101.665,312 41,251.335 41,176.5C41,101.665 101.665,41 176.5,41C251.335,41 312,101.665 312,176.5Z" style="fill:none;fill-rule:nonzero;stroke:black;stroke-width:1px;stroke-linecap:butt;stroke-linejoin:miter;stroke-miterlimit:4;"/>
    </g>
</svg>
