<?xml version="1.0" encoding="UTF-8" standalone="no"?>
<!DOCTYPE svg PUBLIC "-//W3C//DTD SVG 1.1//EN" "http://www.w3.org/Graphics/SVG/1.1/DTD/svg11.dtd">
<svg width="100%" height="100%" viewBox="0 0 353 353" version="1.1" xmlns="http://www.w3.org/2000/svg" xmlns:xlink="http://www.w3.org/1999/xlink" xml:space="preserve" xmlns:serif="http://www.serif.com/" style="fill-rule:evenodd;clip-rule:evenodd;">
    <circle cx="176.504" cy="176.644" r="176.356"/>
    <g transform="matrix(1.90165,-5.55112e-17,5.55112e-17,1.90165,-88.8833,-1.06928)">
        <text x="147.345px" y="17.044px" style="font-family:'ArialMT', 'Arial', sans-serif;font-size:12px;fill:white;">1</text>
    </g>
    <g transform="matrix(1.90165,-5.55112e-17,5.55112e-17,1.90165,-50.5611,15.3325)">
        <text x="147.345px" y="17.044px" style="font-family:'ArialMT', 'Arial', sans-serif;font-size:12px;fill:white;">18</text>
    </g>
    <g transform="matrix(1.90165,-5.55112e-17,5.55112e-17,1.90165,-5.70719,40.2255)">
        <text x="147.345px" y="17.044px" style="font-family:'ArialMT', 'Arial', sans-serif;font-size:12px;fill:white;">4</text>
    </g>
    <g transform="matrix(1.90165,-5.55112e-17,5.55112e-17,1.90165,18.2099,79.5523)">
        <text x="147.345px" y="17.044px" style="font-family:'ArialMT', 'Arial', sans-serif;font-size:12px;fill:white;">13</text>
    </g>
    <g transform="matrix(1.90165,-5.55112e-17,5.55112e-17,1.90165,40.4663,124.076)">
        <text x="147.345px" y="17.044px" style="font-family:'ArialMT', 'Arial', sans-serif;font-size:12px;fill:white;">6</text>
    </g>
    <g transform="matrix(1.90165,-5.55112e-17,5.55112e-17,1.90165,33.5789,171.199)">
        <text x="147.345px" y="17.044px" style="font-family:'ArialMT', 'Arial', sans-serif;font-size:12px;fill:white;">10</text>
    </g>
    <g transform="matrix(1.90165,-5.55112e-17,5.55112e-17,1.90165,22.9993,217.662)">
        <text x="147.345px" y="17.044px" style="font-family:'ArialMT', 'Arial', sans-serif;font-size:12px;fill:white;">15</text>
    </g>
    <g transform="matrix(1.90165,-5.55112e-17,5.55112e-17,1.90165,2.28866,256.143)">
        <text x="147.345px" y="17.044px" style="font-family:'ArialMT', 'Arial', sans-serif;font-size:12px;fill:white;">2</text>
    </g>
    <g transform="matrix(1.90165,-5.55112e-17,5.55112e-17,1.90165,-43.1472,286.525)">
        <text x="147.345px" y="17.044px" style="font-family:'ArialMT', 'Arial', sans-serif;font-size:12px;fill:white;">17</text>
    </g>
    <g transform="matrix(1.90165,-5.55112e-17,5.55112e-17,1.90165,-84.3979,303.807)">
        <text x="147.345px" y="17.044px" style="font-family:'ArialMT', 'Arial', sans-serif;font-size:12px;fill:white;">3</text>
    </g>
    <g transform="matrix(1.90165,-5.55112e-17,5.55112e-17,1.90165,-138.527,303.926)">
        <text x="147.345px" y="17.044px" style="font-family:'ArialMT', 'Arial', sans-serif;font-size:12px;fill:white;">19</text>
    </g>
    <g transform="matrix(1.90165,-5.55112e-17,5.55112e-17,1.90165,-176.967,292.238)">
        <text x="147.345px" y="17.044px" style="font-family:'ArialMT', 'Arial', sans-serif;font-size:12px;fill:white;">7</text>
    </g>
    <g transform="matrix(1.90165,-5.55112e-17,5.55112e-17,1.90165,-230.332,262.449)">
        <text x="147.345px" y="17.044px" style="font-family:'ArialMT', 'Arial', sans-serif;font-size:12px;fill:white;">16</text>
    </g>
    <g transform="matrix(1.90165,-5.55112e-17,5.55112e-17,1.90165,-254.75,225.947)">
        <text x="147.345px" y="17.044px" style="font-family:'ArialMT', 'Arial', sans-serif;font-size:12px;fill:white;">18</text>
    </g>
    <g transform="matrix(1.90165,-5.55112e-17,5.55112e-17,1.90165,-267.005,181.185)">
        <text x="147.345px" y="17.044px" style="font-family:'ArialMT', 'Arial', sans-serif;font-size:12px;fill:white;">1<tspan x="153.128px " y="17.044px ">1</tspan></text>
    </g>
    <g transform="matrix(1.90165,-5.55112e-17,5.55112e-17,1.90165,-273.351,134.393)">
        <text x="147.345px" y="17.044px" style="font-family:'ArialMT', 'Arial', sans-serif;font-size:12px;fill:white;">14</text>
    </g>
    <g transform="matrix(1.90165,-5.55112e-17,5.55112e-17,1.90165,-254.116,85.3834)">
        <text x="147.345px" y="17.044px" style="font-family:'ArialMT', 'Arial', sans-serif;font-size:12px;fill:white;">6</text>
    </g>
    <g transform="matrix(1.90165,-5.55112e-17,5.55112e-17,1.90165,-232.627,45.9119)">
        <text x="147.345px" y="17.044px" style="font-family:'ArialMT', 'Arial', sans-serif;font-size:12px;fill:white;">12</text>
    </g>
    <g transform="matrix(1.90165,-5.55112e-17,5.55112e-17,1.90165,-185.938,15.504)">
        <text x="147.345px" y="17.044px" style="font-family:'ArialMT', 'Arial', sans-serif;font-size:12px;fill:white;">5</text>
    </g>
    <g transform="matrix(1.90165,-5.55112e-17,5.55112e-17,1.90165,-147.59,1.26608)">
        <text x="147.345px" y="17.044px" style="font-family:'ArialMT', 'Arial', sans-serif;font-size:12px;fill:white;">20</text>
    </g>
    <g transform="matrix(0.939337,0,0,0.939337,10.7388,10.5668)">
        <g transform="matrix(0.971837,0,0,0.936149,3.98937,10.7219)">
            <ellipse cx="177.307" cy="176.91" rx="36.016" ry="37.685" style="fill:rgb(0,255,0);"/>
        </g>
        <g transform="matrix(0.553385,0,0,0.558396,78.5827,80.0378)">
            <circle cx="176.889" cy="173.102" r="49.185" style="fill:rgb(255,0,0);"/>
        </g>
        <g id="White-Lines" serif:id="White Lines">
            <path d="M127.035,37.725C113.436,43.303 99.029,50.347 87.361,59.143L154.538,148.06L164.726,142.992L127.035,37.725Z" style="fill:white;"/>
            <g transform="matrix(0.822792,0.568342,-0.568342,0.822792,133.943,-68.929)">
                <path d="M128.836,37.36C115.238,42.938 99.823,49.799 88.155,58.594L154.17,148.314L164.939,143.725L128.836,37.36Z" style="fill:white;"/>
            </g>
            <g transform="matrix(0.321009,0.947076,-0.947076,0.321009,289.144,-45.9235)">
                <path d="M127.238,38.399C113.64,43.977 99.029,50.347 87.361,59.143L154.538,148.06L163.954,143.766L127.238,38.399Z" style="fill:white;"/>
            </g>
            <g transform="matrix(0.809105,-0.587664,0.587664,0.809105,-70.5852,137.023)">
                <path d="M127.725,39.054C114.127,44.632 99.117,51.336 87.449,60.132L155.361,148.859L164.726,142.992L127.725,39.054Z" style="fill:white;"/>
            </g>
            <g transform="matrix(0.330225,-0.943902,0.943902,0.330225,-48.6261,284.765)">
                <path d="M124.66,38.555C111.062,44.133 95.8,52.543 84.132,61.338L154.538,148.06L164.726,142.992L124.66,38.555Z" style="fill:white;"/>
            </g>
            <g transform="matrix(-0.266386,-0.963866,0.963866,-0.266386,53.4338,394.1)">
                <path d="M121.691,39.788C108.093,45.366 94.839,54.113 83.171,62.909L155.85,148.031L163.722,142.846L121.691,39.788Z" style="fill:white;"/>
            </g>
            <g transform="matrix(-0.790492,-0.612473,0.612473,-0.790492,207.978,424.556)">
                <path d="M123.358,39.422C109.76,45 95.43,53.136 83.762,61.931L154.654,148.507L165.213,142.615L123.358,39.422Z" style="fill:white;"/>
            </g>
            <g transform="matrix(-0.999962,-0.00873451,0.00873451,-0.999962,351.996,354.523)">
                <path d="M127.035,37.725C113.436,43.303 99.029,50.347 87.361,59.143L154.538,148.06L164.726,142.992L127.035,37.725Z" style="fill:white;"/>
            </g>
            <g transform="matrix(-0.824968,0.565179,-0.565179,-0.824968,422.709,219.729)">
                <path d="M126.376,36.538C112.778,42.116 98.936,51.019 87.268,59.815L157.004,146.071L166.52,140.91L126.376,36.538Z" style="fill:white;"/>
            </g>
            <g transform="matrix(-0.313612,0.949551,-0.949551,-0.313612,399.559,62.5284)">
                <path d="M128.256,37.321C114.658,42.899 100.267,50.855 88.599,59.651L156.642,147.704L166.954,142.087L128.256,37.321Z" style="fill:white;"/>
            </g>
        </g>
        <g>
            <g transform="matrix(0.959245,0.282575,-0.282575,0.959245,61.353,-43.3878)">
                <path d="M127.13,38.032C113.532,43.61 97.042,50.43 85.374,59.225L151.688,149.067L162.458,143.996L127.13,38.032Z"/>
            </g>
            <g transform="matrix(0.601545,0.798839,-0.798839,0.601545,213.895,-68.5797)">
                <path d="M126.779,37.262C112.043,42.532 96.427,49.92 85.85,59.011L153.171,147.433L163.778,142.883L126.779,37.262Z"/>
            </g>
            <g transform="matrix(-0.0029154,0.999996,-0.999996,-0.0029154,352.198,1.6027)">
                <path d="M126.547,35.957C112.949,41.536 97.419,49.548 85.751,58.343L154.532,146.13L163.757,141.548L126.547,35.957Z"/>
            </g>
            <g transform="matrix(-0.602788,0.797902,-0.797902,-0.602788,423.748,142.445)">
                <path d="M125.107,38.375C111.463,43.169 95.905,51.914 84.282,61.469L153.609,149.165L164.726,142.992L125.107,38.375Z"/>
            </g>
            <g transform="matrix(-0.974826,0.222967,-0.222967,-0.974826,392.381,304.328)">
                <path d="M121.396,38.579C107.331,43.664 93.609,54.222 82.537,63.647L158.173,146.087L166.764,140.325L121.396,38.579Z"/>
            </g>
            <g transform="matrix(-0.923292,-0.384099,0.384099,-0.923292,275.355,406.931)">
                <path d="M119.973,39.588C106.375,45.166 92.544,56.528 80.876,65.323L155.737,148.432L166.037,141.75L119.973,39.588Z"/>
            </g>
            <g transform="matrix(-0.555676,-0.831399,0.831399,-0.555676,127.513,421.107)">
                <path d="M122.35,39.235C108.752,44.814 93.806,54.399 82.139,63.195L154.538,148.06L164.726,142.992L122.35,39.235Z"/>
            </g>
            <g transform="matrix(0.0152547,-0.999884,0.999884,0.0152547,-0.369004,353.539)">
                <path d="M128.457,36.095C114.859,41.673 100.303,49.524 88.635,58.319L157.696,146.488L167.746,140.695L128.457,36.095Z"/>
            </g>
            <g transform="matrix(0.59495,-0.803762,0.803762,0.59495,-67.9349,211.531)">
                <path d="M123.116,37.025C109.517,42.603 94.751,50.513 83.083,59.309L152.317,147.306C155.131,145.118 158.301,143.413 161.758,142.095L123.116,37.025Z"/>
            </g>
            <g transform="matrix(0.938874,-0.344261,0.344261,0.938874,-48.864,65.2892)">
                <path d="M129.636,40.905C116.455,46.091 100.473,52.049 88.523,61.11L153.478,152.638L162.652,147.713L129.636,40.905Z"/>
            </g>
        </g>
        <g id="red-curves" serif:id="red curves">
            <g transform="matrix(0.959245,0.282575,-0.282575,0.959245,61.353,-43.3878)">
                <path d="M127.732,38.089C114.151,43.168 97.52,49.963 85.836,59.206L92.811,68.404C105.033,59.954 117.007,53.971 131.359,49.576L127.732,38.089Z" style="fill:rgb(255,0,0);"/>
            </g>
            <g transform="matrix(0.615815,0.787891,-0.787891,0.615815,212.251,-68.7476)">
                <path d="M127.732,38.089C114.151,43.168 97.52,49.963 85.836,59.206L92.811,68.404C105.033,59.954 117.007,53.971 131.359,49.576L127.732,38.089Z" style="fill:rgb(255,0,0);"/>
            </g>
            <g transform="matrix(0.0306205,0.999531,-0.999531,0.0306205,350.183,-1.05279)">
                <path d="M127.732,38.089C114.151,43.168 97.52,49.963 85.836,59.206L92.811,68.404C105.033,59.954 117.007,53.971 131.359,49.576L127.732,38.089Z" style="fill:rgb(255,0,0);"/>
            </g>
            <g transform="matrix(-0.556346,0.830951,-0.830951,-0.556346,420.672,133.969)">
                <path d="M127.732,38.089C114.151,43.168 97.52,49.963 85.836,59.206L92.811,68.404C105.033,59.954 117.007,53.971 131.359,49.576L127.732,38.089Z" style="fill:rgb(255,0,0);"/>
            </g>
            <g transform="matrix(-0.945876,0.324527,-0.324527,-0.945876,398.28,288.727)">
                <path d="M127.232,38.046C113.652,43.125 97.52,49.963 85.836,59.206L93.114,69.022C105.335,60.572 116.432,53.773 130.784,49.379L127.232,38.046Z" style="fill:rgb(255,0,0);"/>
            </g>
            <g transform="matrix(-0.961695,-0.27412,0.27412,-0.961695,292.316,395.61)">
                <path d="M127.732,38.089C114.151,43.168 97.52,49.963 85.836,59.206L92.811,68.404C105.033,59.954 117.007,53.971 131.359,49.576L127.732,38.089Z" style="fill:rgb(255,0,0);"/>
            </g>
            <g transform="matrix(-0.61399,-0.789314,0.789314,-0.61399,140.653,421.927)">
                <path d="M127.732,38.089C114.151,43.168 97.52,49.963 85.836,59.206L92.811,68.404C105.033,59.954 117.007,53.971 131.359,49.576L127.732,38.089Z" style="fill:rgb(255,0,0);"/>
            </g>
            <g transform="matrix(-0.0238996,-0.999714,0.999714,-0.0238996,2.59133,354.061)">
                <path d="M127.732,38.089C114.151,43.168 98.559,49.604 86.876,58.847L93.266,68.19C105.487,59.74 117.007,53.971 131.359,49.576L127.732,38.089Z" style="fill:rgb(255,0,0);"/>
            </g>
            <g transform="matrix(0.540254,-0.846288,0.83919,0.535724,-66.2223,222.165)">
                <path d="M127.732,38.089C114.151,43.168 97.985,49.3 86.302,58.543L93.266,68.19C105.487,59.74 117.007,53.971 131.359,49.576L127.732,38.089Z" style="fill:rgb(255,0,0);"/>
            </g>
            <g transform="matrix(0.938457,-0.356897,0.353904,0.930587,-46.8244,69.0871)">
                <path d="M128.083,38.585C114.502,43.664 98.508,49.063 86.825,58.306L93.266,68.19C105.487,59.74 117.007,53.971 131.359,49.576L128.083,38.585Z" style="fill:rgb(255,0,0);"/>
            </g>
            <g transform="matrix(0.938457,-0.356897,0.353904,0.930587,-7.83503,109.234)">
                <path d="M121.964,41.959C108.383,47.038 109.465,45.991 96.796,54.421L102.24,61.53C114.461,53.081 110.427,55.14 124.779,50.745L121.964,41.959Z" style="fill:rgb(255,0,0);"/>
            </g>
            <g transform="matrix(0.979425,0.22092,-0.219067,0.97121,62.6594,17.5444)">
                <path d="M123.931,42.448C123.931,42.448 112.225,44.149 97.547,53.626L102.24,61.53C109.492,56.485 117.65,52.953 126.658,50.838L123.931,42.448Z" style="fill:rgb(255,0,0);"/>
            </g>
            <g transform="matrix(0.668404,0.749209,-0.742925,0.662799,177.827,-18.7703)">
                <path d="M124.331,43.216C124.331,43.216 112.225,44.149 97.547,53.626L102.24,61.53C109.492,56.485 117.497,54.04 126.505,51.926L124.331,43.216Z" style="fill:rgb(255,0,0);"/>
            </g>
            <g transform="matrix(0.0641146,1.00198,-0.993578,0.0635769,296.152,21.0889)">
                <path d="M122.568,42.391C122.568,42.391 112.225,44.149 97.547,53.626L102.24,61.53C109.492,56.485 116.035,53.234 125.043,51.119L122.568,42.391Z" style="fill:rgb(255,0,0);"/>
            </g>
            <g transform="matrix(-0.53613,0.848907,-0.841787,-0.531633,364.166,121.917)">
                <path d="M122.568,42.391C122.568,42.391 110.223,44.944 95.544,54.421L100.417,61.851C107.668,56.806 116.035,53.234 125.043,51.119L122.568,42.391Z" style="fill:rgb(255,0,0);"/>
            </g>
            <g transform="matrix(-0.53613,0.848907,-0.841787,-0.531633,336.975,168.515)">
                <path d="M123.495,46.723C114.919,43.92 105.905,41.758 96.23,41.256L95.816,50.132C104.215,50.813 112.386,52.51 120.366,55.059L123.495,46.723Z" style="fill:rgb(255,0,0);"/>
            </g>
            <g transform="matrix(-0.53613,0.848907,-0.841787,-0.531633,291.49,185.8)">
                <path d="M128.772,52.488C123.264,43.831 116.507,36.865 108.765,31.232L103.54,38.128C109.881,43.572 115.681,50.041 121.007,57.413L128.772,52.488Z" style="fill:rgb(255,0,0);"/>
            </g>
            <g transform="matrix(-0.53613,0.848907,-0.841787,-0.531633,245.296,178.421)">
                <path d="M113.541,38.053C115.752,46.152 116.746,54.746 116.174,63.977L124.993,64.21C125.611,54.126 124.526,44.568 122.217,35.388L113.541,38.053Z" style="fill:rgb(255,0,0);"/>
            </g>
            <g transform="matrix(-0.00197892,-1.00403,0.995608,-0.00196233,50.0831,327.687)">
                <path d="M120.657,41.473C120.657,41.473 110.631,45.146 95.96,54.616C95.957,54.619 95.954,54.622 95.953,54.626C95.953,54.63 95.954,54.635 95.956,54.638C96.205,54.974 101.222,61.751 101.222,61.751C108.661,57.181 114.778,52.903 123.435,49.898L120.657,41.473Z" style="fill:rgb(255,0,0);"/>
            </g>
            <g transform="matrix(0.55803,-0.834674,0.827673,0.553351,-13.4418,229.323)">
                <path d="M122.568,42.391C122.568,42.391 112.121,44.885 97.443,54.362L102.567,61.989C109.818,56.944 116.035,53.234 125.043,51.119L122.568,42.391Z" style="fill:rgb(255,0,0);"/>
            </g>
        </g>
        <g id="red-curves1" serif:id="red curves" transform="matrix(0.95088,0.30956,-0.30956,0.95088,63.3001,-46.0694)">
            <g transform="matrix(0.959245,0.282575,-0.282575,0.959245,61.353,-43.3878)">
                <path d="M127.732,38.089C114.151,43.168 98.258,49.994 86.575,59.237L93.466,68.313C105.687,59.864 117.007,53.971 131.359,49.576L127.732,38.089Z" style="fill:rgb(0,255,0);"/>
            </g>
            <g transform="matrix(0.615815,0.787891,-0.787891,0.615815,212.251,-68.7476)">
                <path d="M127.113,38.493C113.533,43.572 97.81,49.597 86.127,58.84L93.228,68.556C105.449,60.106 116.477,54.564 130.829,50.169L127.113,38.493Z" style="fill:rgb(0,255,0);"/>
            </g>
            <g transform="matrix(0.0306205,0.999531,-0.999531,0.0306205,350.183,-1.05279)">
                <path d="M127.147,38.721C113.566,43.8 97.52,49.963 85.836,59.206L93.261,68.889C105.482,60.439 116.097,54.544 130.449,50.15L127.147,38.721Z" style="fill:rgb(0,255,0);"/>
            </g>
            <g transform="matrix(-0.556346,0.830951,-0.830951,-0.556346,420.672,133.969)">
                <path d="M127.732,38.089C114.151,43.168 98.342,48.917 86.658,58.16L93.758,68.396C105.979,59.946 117.007,53.971 131.359,49.576L127.732,38.089Z" style="fill:rgb(0,255,0);"/>
            </g>
            <g transform="matrix(-0.945876,0.324527,-0.324527,-0.945876,398.28,288.727)">
                <path d="M126.191,38.473C112.61,43.552 97.52,49.963 85.836,59.206L93.114,69.022C105.335,60.572 115.541,54.055 129.893,49.66L126.191,38.473Z" style="fill:rgb(0,255,0);"/>
            </g>
            <g transform="matrix(-0.961695,-0.27412,0.27412,-0.961695,292.316,395.61)">
                <path d="M127.732,38.089C114.151,43.168 97.763,49.265 86.079,58.508L92.811,68.404C105.033,59.954 117.007,53.971 131.359,49.576L127.732,38.089Z" style="fill:rgb(0,255,0);"/>
            </g>
            <g transform="matrix(-0.61399,-0.789314,0.789314,-0.61399,140.653,421.927)">
                <path d="M127.126,38.027C113.545,43.106 98.149,49.09 86.466,58.333L93.757,67.96C105.978,59.51 116.301,54.187 130.653,49.792L127.126,38.027Z" style="fill:rgb(0,255,0);"/>
            </g>
            <g transform="matrix(-0.0238996,-0.999714,0.999714,-0.0238996,2.59133,354.061)">
                <path d="M127.732,38.089C114.151,43.168 97.985,49.3 86.302,58.543L93.266,68.19C105.487,59.74 117.007,53.971 131.359,49.576L127.732,38.089Z" style="fill:rgb(0,255,0);"/>
            </g>
            <g transform="matrix(0.540254,-0.846288,0.83919,0.535724,-66.2223,222.165)">
                <path d="M128.244,38.421C114.664,43.5 97.985,49.3 86.302,58.543L93.266,68.19C105.487,59.74 117.007,53.971 131.359,49.576L128.244,38.421Z" style="fill:rgb(0,255,0);"/>
            </g>
            <g transform="matrix(0.938457,-0.356897,0.353904,0.930587,-46.8244,69.0871)">
                <path d="M127.108,38.801C113.527,43.88 98.144,49.477 86.461,58.72L93.266,68.19C105.487,59.74 116.362,55.128 130.714,50.733L127.108,38.801Z" style="fill:rgb(0,255,0);"/>
            </g>
            <g transform="matrix(0.938457,-0.356897,0.353904,0.930587,-7.83503,109.234)">
                <path d="M121.964,41.959C108.383,47.038 109.465,45.991 96.796,54.421L102.24,61.53C114.461,53.081 110.427,55.14 124.779,50.745L121.964,41.959Z" style="fill:rgb(0,255,0);"/>
            </g>
            <g transform="matrix(0.979425,0.22092,-0.219067,0.97121,62.6594,17.5444)">
                <path d="M123.931,42.448C123.931,42.448 112.933,43.897 98.255,53.374L102.797,61.023C110.049,55.978 117.65,52.953 126.658,50.838L123.931,42.448Z" style="fill:rgb(0,255,0);"/>
            </g>
            <g transform="matrix(0.668404,0.749209,-0.742925,0.662799,177.827,-18.7703)">
                <path d="M123.269,43.071C123.269,43.071 112.225,44.149 97.547,53.626L102.24,61.53C109.492,56.485 117.168,54.057 126.176,51.942L123.269,43.071Z" style="fill:rgb(0,255,0);"/>
            </g>
            <g transform="matrix(0.0641146,1.00198,-0.993578,0.0635769,296.152,21.0889)">
                <path d="M122.568,42.391C122.568,42.391 111.728,44.584 97.05,54.061L102.24,61.53C109.492,56.485 116.035,53.234 125.043,51.119L122.568,42.391Z" style="fill:rgb(0,255,0);"/>
            </g>
            <g transform="matrix(-0.53613,0.848907,-0.841787,-0.531633,364.166,121.917)">
                <path d="M121.888,41.822C121.888,41.822 111.389,43.991 96.711,53.469L101.81,61.088C109.061,56.043 115.319,53.406 124.327,51.292L121.888,41.822Z" style="fill:rgb(0,255,0);"/>
            </g>
            <g transform="matrix(-0.53613,0.848907,-0.841787,-0.531633,336.975,168.515)">
                <path d="M123.495,46.723C114.919,43.92 105.905,41.758 96.23,41.256L95.816,50.132C104.215,50.813 112.386,52.51 120.366,55.059L123.495,46.723Z" style="fill:rgb(0,255,0);"/>
            </g>
            <g transform="matrix(-0.53613,0.848907,-0.841787,-0.531633,290.787,186.029)">
                <path d="M128.772,52.488C123.264,43.831 116.507,36.865 108.765,31.232L103.54,38.128C109.881,43.572 115.681,50.041 121.007,57.413L128.772,52.488Z" style="fill:rgb(0,255,0);"/>
            </g>
            <g transform="matrix(-0.53613,0.848907,-0.841787,-0.531633,245.296,178.421)">
                <path d="M113.712,38.775C115.923,46.874 116.724,53.378 116.153,62.608L125.085,62.936C125.703,52.853 124.603,45.404 122.294,36.224L113.712,38.775Z" style="fill:rgb(0,255,0);"/>
            </g>
            <g transform="matrix(-0.00197892,-1.00403,0.995608,-0.00196233,50.0831,327.687)">
                <path d="M120.657,41.473C120.657,41.473 110.631,45.146 95.96,54.616C95.957,54.619 95.954,54.622 95.953,54.626C95.953,54.63 95.954,54.635 95.956,54.638C96.205,54.974 101.222,61.751 101.222,61.751C108.661,57.181 114.778,52.903 123.435,49.898L120.657,41.473Z" style="fill:rgb(0,255,0);"/>
            </g>
            <g transform="matrix(0.55803,-0.834674,0.827673,0.553351,-13.4418,229.323)">
                <path d="M122.568,42.391C122.568,42.391 111.112,45.218 96.434,54.695L101.996,62.481C109.248,57.435 116.035,53.234 125.043,51.119L122.568,42.391Z" style="fill:rgb(0,255,0);"/>
            </g>
        </g>
        <path id="Board" d="M173,29.5L176.5,141M218.66,35.113L188,142.904M260.667,55.356L198,148.249M205.5,156.019L293.669,86.89M315.702,127.603L210,164.724M211.5,175.5L323.944,172.382M317.758,219.091L210.096,188M297.694,260.596L205.5,196.981M198,204.5L265.761,293.935M226,315.5L188.276,210M176.5,212L180.007,323.959M134.45,317.919L164.724,210M154.674,204.5L92.121,297.497M59.5,266L148,197.67M142.904,188L37.395,225.672M29,180L141,176.5M142.508,166.23L35,134.5M147.5,156.019L69.804,102.528L55.334,92.364M87,59.5L154.674,148.249M127,37.5L165,142.904M267,176.5C267,225.308 228.364,265.091 180.007,266.933C178.844,266.978 177.674,267 176.5,267C126.518,267 86,226.482 86,176.5C86,126.518 126.518,86 176.5,86C226.482,86 267,126.518 267,176.5ZM258,176.5C258,221.03 222.287,257.219 177.941,257.988C177.461,257.996 176.981,258 176.5,258C168.068,258 159.935,256.719 152.285,254.342C119.098,244.029 95,213.079 95,176.5C95,131.489 131.489,95 176.5,95C221.511,95 258,131.489 258,176.5ZM212,176.5C212,196.106 196.106,212 176.5,212C156.894,212 141,196.106 141,176.5C141,156.894 156.894,141 176.5,141C196.106,141 212,156.894 212,176.5ZM204,176.5C204,191.688 191.688,204 176.5,204C161.312,204 149,191.688 149,176.5C149,161.312 161.312,149 176.5,149C191.688,149 204,161.312 204,176.5ZM324,176.5C324,257.962 257.962,324 176.5,324C95.038,324 29,257.962 29,176.5C29,95.038 95.038,29 176.5,29C257.962,29 324,95.038 324,176.5ZM312,176.5C312,251.335 251.335,312 176.5,312C101.665,312 41,251.335 41,176.5C41,101.665 101.665,41 176.5,41C251.335,41 312,101.665 312,176.5Z" style="fill:none;fill-rule:nonzero;stroke:black;stroke-width:1px;"/>
    </g>
</svg>
