<svg width="353" height="353" viewBox="0 0 353 353" fill="none" xmlns="http://www.w3.org/2000/svg">
<path d="M173 29.5L175.5 141.5M218.5 36L186.5 143M260 56L196.5 147.5M204 155L293 87.5M314.5 128L209.5 165M211.5 175.5L323 173M316.5 218.5L210 186.5M297 260L205.5 196.5M198 204.5L266 294M226 315.5L188 209.5M177.5 211.5L180 323.5M134.5 317.5L166.5 210M156.5 205.5L92.5 297M59.5 266L148.5 198M143.5 188L37.5 225.5M29.5 180L141.5 177.5M143 166.5L35 134.5M148 156.5L56 93M87 59.5L155.5 148.5M127 37.5L165 143.5M267 176.5C267 226.482 226.482 267 176.5 267C126.518 267 86 226.482 86 176.5C86 126.518 126.518 86 176.5 86C226.482 86 267 126.518 267 176.5ZM258 176.5C258 221.511 221.511 258 176.5 258C131.489 258 95 221.511 95 176.5C95 131.489 131.489 95 176.5 95C221.511 95 258 131.489 258 176.5ZM212 176.5C212 196.106 196.106 212 176.5 212C156.894 212 141 196.106 141 176.5C141 156.894 156.894 141 176.5 141C196.106 141 212 156.894 212 176.5ZM204 176.5C204 191.688 191.688 204 176.5 204C161.312 204 149 191.688 149 176.5C149 161.312 161.312 149 176.5 149C191.688 149 204 161.312 204 176.5ZM352 176.5C352 273.426 273.426 352 176.5 352C79.574 352 1 273.426 1 176.5C1 79.574 79.574 1 176.5 1C273.426 1 352 79.574 352 176.5ZM324 176.5C324 257.962 257.962 324 176.5 324C95.038 324 29 257.962 29 176.5C29 95.038 95.038 29 176.5 29C257.962 29 324 95.038 324 176.5ZM312 176.5C312 251.335 251.335 312 176.5 312C101.665 312 41 251.335 41 176.5C41 101.665 101.665 41 176.5 41C251.335 41 312 101.665 312 176.5Z" stroke="black"/>
</svg>
